<?xml version="1.0" standalone="no"?>
<!DOCTYPE svg PUBLIC "-//W3C//DTD SVG 20010904//EN"
 "http://www.w3.org/TR/2001/REC-SVG-20010904/DTD/svg10.dtd">
<svg version="1.0" xmlns="http://www.w3.org/2000/svg"
 width="640.000000pt" height="640.000000pt" viewBox="0 0 640.000000 640.000000"
 preserveAspectRatio="xMidYMid meet">
<metadata>
Created by potrace 1.11, written by Peter Selinger 2001-2013
</metadata>
<g transform="translate(0.000000,640.000000) scale(0.100000,-0.100000)"
fill="#000000" stroke="none">
<path d="M990 5425 c-41 -7 -88 -16 -105 -19 -16 -3 -50 -9 -75 -12 -25 -3
-63 -9 -85 -13 l-40 -7 -2 -854 c-1 -528 2 -876 8 -910 29 -163 164 -285 334
-304 33 -4 74 -9 90 -11 65 -8 443 -18 675 -18 286 0 436 8 575 29 88 13 122
19 223 40 l23 5 -4 502 c-3 466 -5 507 -24 572 -29 100 -58 152 -122 215 -66
64 -135 100 -243 128 -147 38 -444 23 -643 -31 -48 -13 -50 -15 -49 -48 1 -30
6 -75 18 -149 6 -38 19 -124 21 -135 1 -11 2 -11 81 10 74 19 172 29 289 30
92 0 105 -3 160 -30 49 -25 64 -38 82 -75 13 -26 25 -70 27 -103 3 -51 1 -57
-13 -51 -34 14 -305 13 -386 -1 -234 -42 -368 -148 -409 -324 -13 -55 -16
-187 -5 -231 3 -12 -8 -15 -60 -13 -133 3 -191 23 -228 80 -17 26 -18 75 -18
882 0 561 -3 855 -10 856 -5 2 -44 -3 -85 -10z m1178 -1509 l42 -8 0 -154 c0
-85 -3 -154 -7 -155 -5 0 -17 -2 -28 -5 -11 -2 -65 -4 -120 -5 -154 -2 -218
20 -251 82 -31 60 -22 152 18 193 54 53 206 76 346 52z"/>
<path d="M3308 4785 c-2 -1 -32 -6 -68 -9 -64 -7 -141 -21 -288 -52 l-72 -16
2 -691 3 -692 190 -1 c105 0 195 1 200 3 7 2 10 190 10 544 0 297 2 542 5 544
29 18 221 21 281 5 54 -15 105 -68 124 -132 16 -52 20 -100 29 -388 8 -224 49
-413 125 -576 141 -301 365 -454 751 -514 41 -6 86 -14 100 -16 32 -5 309 -6
318 0 4 2 33 7 65 10 83 10 194 40 282 77 157 65 293 248 340 459 12 53 14
183 15 712 l0 647 -37 11 c-40 11 -155 36 -210 45 -76 12 -91 14 -153 20 -36
4 -108 7 -161 6 -386 -1 -638 -179 -719 -506 -35 -139 -31 -318 9 -456 36
-121 60 -165 140 -251 97 -105 228 -158 404 -163 105 -3 169 8 300 52 14 4 17
-1 17 -33 0 -54 -34 -118 -99 -183 -81 -82 -132 -96 -356 -95 -179 1 -268 15
-397 64 -141 53 -257 227 -302 455 -8 44 -18 94 -21 110 -4 17 -8 111 -10 210
-6 252 -13 333 -36 415 -59 213 -194 340 -402 376 -68 12 -367 19 -379 9z
m1990 -347 c6 -1 13 -4 13 -7 1 -3 2 -149 3 -325 l1 -318 -37 -19 c-81 -41
-201 -52 -278 -24 -112 40 -168 147 -168 319 0 99 10 152 43 221 58 124 140
166 315 158 52 -2 101 -4 108 -5z"/>
<path d="M923 2705 l0 -175 403 0 c222 0 404 -2 404 -4 0 -2 -18 -34 -41 -71
-147 -243 -261 -498 -350 -785 -37 -118 -95 -341 -103 -395 -4 -22 -8 -47 -11
-55 -7 -26 -14 -68 -20 -138 -4 -37 -8 -77 -10 -89 l-4 -23 205 0 204 0 1 28
c1 15 3 36 4 47 1 11 5 45 8 76 17 157 97 459 174 664 102 267 279 595 406
747 l39 48 0 147 1 148 -655 3 -655 2 0 -175z"/>
<path d="M2970 2833 c-102 -102 -339 -249 -537 -334 -24 -10 -43 -23 -41 -27
2 -5 29 -76 62 -159 l58 -150 76 29 c80 30 219 99 264 130 14 10 28 18 30 18
1 0 3 -309 3 -687 l0 -688 203 -1 202 -1 0 953 0 954 -142 -1 -143 -2 -35 -34z"/>
</g>
</svg>
