<?xml version="1.0" standalone="no"?>
<!DOCTYPE svg PUBLIC "-//W3C//DTD SVG 20010904//EN"
 "http://www.w3.org/TR/2001/REC-SVG-20010904/DTD/svg10.dtd">
<svg version="1.0" xmlns="http://www.w3.org/2000/svg"
 width="260.000000pt" height="260.000000pt" viewBox="0 0 260.000000 260.000000"
 preserveAspectRatio="xMidYMid meet">
<metadata>
Created by potrace 1.11, written by Peter Selinger 2001-2013
</metadata>
<g transform="translate(0.000000,260.000000) scale(0.100000,-0.100000)"
fill="#000000" stroke="none">
<path d="M2210 2273 c-30 -25 -96 -85 -147 -135 l-91 -89 -86 66 c-151 116
-299 169 -506 181 -261 15 -463 -41 -637 -174 -303 -232 -430 -502 -409 -867
13 -232 88 -421 227 -570 l28 -30 -127 -136 c-108 -116 -203 -239 -185 -239
10 0 63 34 63 41 0 3 19 19 42 34 24 16 77 60 118 99 41 39 92 86 112 105 l38
35 27 -25 c60 -54 148 -113 219 -145 123 -57 210 -76 382 -81 134 -5 165 -2
250 17 189 43 329 127 488 291 106 111 155 185 191 294 53 156 78 375 43 375
-6 0 -10 -19 -10 -42 0 -60 -41 -206 -88 -315 -46 -105 -99 -179 -200 -277
-198 -191 -389 -270 -646 -267 -165 3 -287 30 -409 93 -58 29 -187 126 -187
140 0 6 150 162 333 347 182 185 466 471 629 637 l297 301 34 -36 c65 -68 114
-146 149 -236 61 -156 88 -242 88 -284 0 -51 15 -54 23 -3 8 48 -17 190 -55
315 -27 87 -40 111 -108 202 l-78 103 30 29 c53 49 237 276 232 285 -8 13 -16
9 -74 -39z m-757 -63 c146 -17 259 -63 384 -157 l73 -56 -52 -56 c-29 -31
-313 -320 -632 -643 -469 -476 -582 -586 -593 -576 -37 31 -134 182 -161 253
-40 102 -50 147 -58 275 -18 300 65 522 273 721 213 204 442 276 766 239z"/>
</g>
</svg>
