<?xml version="1.0" encoding="utf-8"?>
<!-- Generator: Adobe Illustrator 19.0.0, SVG Export Plug-In . SVG Version: 6.00 Build 0)  -->
<svg version="1.1" id="Layer_1" xmlns="http://www.w3.org/2000/svg" xmlns:xlink="http://www.w3.org/1999/xlink" x="0px" y="0px"
	 viewBox="0 0 112 97.4" style="enable-background:new 0 0 112 97.4;" xml:space="preserve">
<style type="text/css">
	.st0{fill:#8E44AD;}
	.st1{opacity:0.3;}
</style>
<g id="XMLID_31_">
	<path id="XMLID_108_" class="st0" d="M11.4,97.4c0.2-2.9,0.7-6,1.5-9.1c0.8-3.2,1.7-6.3,2.8-9.3c1.1-3,2.3-5.9,3.7-8.6
		c1.4-2.7,2.7-5,4.1-7H5.4v-7.6h29.1v6.5c-1.3,1.4-2.7,3.3-4.2,5.8c-1.5,2.5-3,5.3-4.4,8.4c-1.4,3.1-2.6,6.5-3.6,10.1
		c-1,3.6-1.7,7.2-1.9,10.8H11.4z"/>
	<path id="XMLID_106_" class="st0" d="M38,64.5c1.2-0.5,2.4-1,3.6-1.6c1.3-0.6,2.5-1.3,3.7-2c1.2-0.7,2.3-1.5,3.5-2.3
		c1.1-0.8,2.1-1.7,3-2.6H58v41.6H49V67.5c-1.2,0.8-2.5,1.5-4,2.2c-1.5,0.7-2.9,1.2-4.3,1.7L38,64.5z"/>
</g>
<path id="XMLID_28_" class="st0" d="M39.9,17.6c-1.1-1.1-2.5-2-4.2-2.6c-1.8-0.6-4-0.9-6.6-0.9c-1,0-2.1,0.1-3.1,0.1
	c-1,0.1-2,0.2-2.9,0.4c-0.9,0.1-1.8,0.3-2.5,0.5c-0.8,0.2-1.4,0.4-2,0.5l1.1,7.2c1.1-0.4,2.4-0.7,3.8-0.9c1.5-0.2,3-0.3,4.5-0.3
	c2.3,0,3.7,0.5,4.7,1.4c0.9,0.9,1.2,2.1,1.2,3.7v0.8c0-0.2-1.2-0.3-2.1-0.4c-0.9-0.1-1.9-0.1-3-0.1c-1.7,0-3.3,0.2-4.9,0.5
	c-1.6,0.3-3,0.9-4.2,1.6c-1.2,0.8-2.2,1.8-3,3.1c-0.7,1.3-1.1,2.8-1.1,4.7c0,1.1,0.1,2.1,0.3,3c-1.2-0.1-4.3-0.3-4.9-0.6
	c-0.6-0.3-1.1-0.6-1.5-1.1c-0.3-0.4-0.4-1-0.6-1.6C8.9,35.9,9,35.2,9,34.4V0L0,1.4v34.7c0,1.7,0.1,3.2,0.4,4.5
	c0.3,1.3,0.9,2.5,1.9,3.4c0.9,0.9,2.2,1.7,3.8,2.2c3.4,1.1,20.5,0.9,23.1,0.9c1,0,6.1-0.2,8.3-0.6c2.3-0.4,4.4-0.7,5.4-1V27.1
	c0-2-0.3-3.7-0.7-5.3C41.8,20.1,41,18.8,39.9,17.6z M34,40.1c0,0.1-1,0.1-1.8,0.2c-0.8,0-1.6,0.1-2.5,0.1c-1.6,0-2.9-0.3-3.8-0.8
	C25,39,24.5,38,24.5,36.6c0-0.7,0.2-1.3,0.5-1.8c0.3-0.5,0.8-0.9,1.3-1.1c0.6-0.3,1.2-0.5,2-0.6c0.7-0.1,1.5-0.1,2.4-0.1
	c0.6,0,1.1,0,1.8,0.1c0.7,0.1,1.5,0.2,1.5,0.2V40.1z M109.2,15.4c-1-0.2-2.1-0.4-3.3-0.6c-1.1-0.2-2.3-0.3-3.4-0.4
	c-1.1-0.1-2.3-0.1-3.3-0.1c-2.5,0-4.8,0.4-6.8,1.1c-2,0.7-3.7,1.8-5.1,3.1c-1.4,1.4-2.4,3-3.2,4.9c-0.7,1.9-1.1,4-1.1,6.3
	c0,4.6,1.2,8.3,3.5,10.8c2.3,2.6,5.7,3.9,10,3.9c1.2,0,1.8,0,2.8-0.3c1-0.2,2.6-0.6,3.6-1.1v1.1c0,1.8-1.6,3.2-2.6,4.3
	c-1.5,1.5-4.9,1.7-7.5,1.7c-2,0-3.7-0.2-5.3-0.5c-1.5-0.3-3-0.8-4.4-1.3c-7.8-4.4-6.6-19.7-6.6-19.7c0-2.2-0.2-4.1-0.7-5.9
	c-0.4-1.8-1.2-3.3-2.2-4.6c-1-1.3-2.5-2.3-4.2-3c-1.8-0.7-4-1-6.7-1c-2.6,0-5.3,0.2-7.7,0.6c-2.4,0.4-4.1,0.8-6.1,1.2v30.2h9V22.2
	c1-0.1,1.3-0.1,2.1-0.2s1.5-0.1,2.1-0.1c2.1,0,3.5,0.6,4.3,1.8c0.8,1.2,1.2,3.2,1.2,6.1c0,0-1.9,21.5,14,26.2c1.6,0.6,3.4,1,5.3,1.3
	s3.8,0.5,5.8,0.5c5.5,0,11.7-1.3,14.3-3.8c2.6-2.5,5-6.3,5-11.5V16.1C111,15.8,110.2,15.6,109.2,15.4z M103,36.1
	c-1,0.3-1.3,0.6-2.1,0.8c-0.8,0.2-1.7,0.4-2.6,0.4c-4,0-6.1-2.5-6.1-7.5c0-2.4,0.6-4.4,1.7-5.9c1.2-1.6,2.9-2.3,5.3-2.3
	c0.8,0,1.6,0,2.2,0.1c0.6,0.1,0.6,0.1,1.6,0.2V36.1z"/>
<path id="XMLID_1_" class="st1" d="M39.9,17.6c-1.1-1.1-2.5-2-4.2-2.6c-1.8-0.6-4-0.9-6.6-0.9c-1,0-2.1,0.1-3.1,0.1
	c-1,0.1-2,0.2-2.9,0.4c-0.9,0.1-1.8,0.3-2.5,0.5c-0.8,0.2-1.4,0.4-2,0.5l1.1,7.2c1.1-0.4,2.4-0.7,3.8-0.9c1.5-0.2,3-0.3,4.5-0.3
	c2.3,0,3.7,0.5,4.7,1.4c0.9,0.9,1.2,2.1,1.2,3.7v0.8c0-0.2-1.2-0.3-2.1-0.4c-0.9-0.1-1.9-0.1-3-0.1c-1.7,0-3.3,0.2-4.9,0.5
	c-1.6,0.3-3,0.9-4.2,1.6c-1.2,0.8-2.2,1.8-3,3.1c-0.7,1.3-1.1,2.8-1.1,4.7c0,1.1,0.1,2.1,0.3,3c-1.2-0.1-4.3-0.3-4.9-0.6
	c-0.6-0.3-1.1-0.6-1.5-1.1c-0.3-0.4-0.4-1-0.6-1.6C8.9,35.9,9,35.2,9,34.4V0L0,1.4v34.7c0,1.7,0.1,3.2,0.4,4.5
	c0.3,1.3,0.9,2.5,1.9,3.4c0.9,0.9,2.2,1.7,3.8,2.2c3.4,1.1,20.5,0.9,23.1,0.9c1,0,6.1-0.2,8.3-0.6c2.3-0.4,4.4-0.7,5.4-1V27.1
	c0-2-0.3-3.7-0.7-5.3C41.8,20.1,41,18.8,39.9,17.6z M34,40.1c0,0.1-1,0.1-1.8,0.2c-0.8,0-1.6,0.1-2.5,0.1c-1.6,0-2.9-0.3-3.8-0.8
	C25,39,24.5,38,24.5,36.6c0-0.7,0.2-1.3,0.5-1.8c0.3-0.5,0.8-0.9,1.3-1.1c0.6-0.3,1.2-0.5,2-0.6c0.7-0.1,1.5-0.1,2.4-0.1
	c0.6,0,1.1,0,1.8,0.1c0.7,0.1,1.5,0.2,1.5,0.2V40.1z M109.2,15.4c-1-0.2-2.1-0.4-3.3-0.6c-1.1-0.2-2.3-0.3-3.4-0.4
	c-1.1-0.1-2.3-0.1-3.3-0.1c-2.5,0-4.8,0.4-6.8,1.1c-2,0.7-3.7,1.8-5.1,3.1c-1.4,1.4-2.4,3-3.2,4.9c-0.7,1.9-1.1,4-1.1,6.3
	c0,4.6,1.2,8.3,3.5,10.8c2.3,2.6,5.7,3.9,10,3.9c1.2,0,1.8,0,2.8-0.3c1-0.2,2.6-0.6,3.6-1.1v1.1c0,1.8-1.6,3.2-2.6,4.3
	c-1.5,1.5-4.9,1.7-7.5,1.7c-2,0-3.7-0.2-5.3-0.5c-1.5-0.3-3-0.8-4.4-1.3c-7.8-4.4-6.6-19.7-6.6-19.7c0-2.2-0.2-4.1-0.7-5.9
	c-0.4-1.8-1.2-3.3-2.2-4.6c-1-1.3-2.5-2.3-4.2-3c-1.8-0.7-4-1-6.7-1c-2.6,0-5.3,0.2-7.7,0.6c-2.4,0.4-4.1,0.8-6.1,1.2v30.2h9V22.2
	c1-0.1,1.3-0.1,2.1-0.2s1.5-0.1,2.1-0.1c2.1,0,3.5,0.6,4.3,1.8c0.8,1.2,1.2,3.2,1.2,6.1c0,0-1.9,21.5,14,26.2c1.6,0.6,3.4,1,5.3,1.3
	s3.8,0.5,5.8,0.5c5.5,0,11.7-1.3,14.3-3.8c2.6-2.5,5-6.3,5-11.5V16.1C111,15.8,110.2,15.6,109.2,15.4z M103,36.1
	c-1,0.3-1.3,0.6-2.1,0.8c-0.8,0.2-1.7,0.4-2.6,0.4c-4,0-6.1-2.5-6.1-7.5c0-2.4,0.6-4.4,1.7-5.9c1.2-1.6,2.9-2.3,5.3-2.3
	c0.8,0,1.6,0,2.2,0.1c0.6,0.1,0.6,0.1,1.6,0.2V36.1z"/>
</svg>
